<?xml version="1.0" encoding="UTF-8"?>
<svg id="Layer_1" data-name="Layer 1" xmlns="http://www.w3.org/2000/svg" viewBox="0 0 275.59 95.38">
  <defs>
    <style>
      .cls-1 {
        fill: #fff;
      }
    </style>
  </defs>
  <path class="cls-1" d="M83.46,26.15v51.48h-14.14v-20.16h-17.26v20.16h-14.14V26.15h14.14v19h17.26V26.15h14.14Z"/>
  <path class="cls-1" d="M123.27,65.3v12.33h-36.69V26.15h36.03v12.33h-21.9v7.25h18.71v11.46h-18.71v8.12h22.55Z"/>
  <path class="cls-1" d="M141.75,26.15h15.81l16.39,51.48h-14.36l-2.66-10.08h-14.54l-2.66,10.08h-14.43l16.46-51.48Zm12.69,31.97l-4.78-18.13-4.78,18.13h9.57Z"/>
  <path class="cls-1" d="M189.96,76.85V25.37h23.64c2.51,0,4.83,.51,6.96,1.52,2.13,1.02,3.96,2.38,5.51,4.1,1.55,1.72,2.74,3.64,3.59,5.76,.84,2.13,1.27,4.28,1.27,6.45,0,1.98-.29,3.89-.87,5.73-.58,1.84-1.43,3.52-2.54,5.04-1.11,1.52-2.44,2.84-3.99,3.95l10.88,18.92h-15.52l-9.06-15.81h-5.73v15.81h-14.14Zm14.14-28.13h8.92c.58,0,1.13-.22,1.67-.65,.53-.43,.98-1.06,1.34-1.88,.36-.82,.54-1.81,.54-2.97s-.21-2.21-.62-3.01c-.41-.8-.92-1.41-1.52-1.85-.6-.43-1.2-.65-1.78-.65h-8.56v11.02Z"/>
  <path class="cls-1" d="M275.59,64.53v12.33h-36.69V25.37h36.03v12.33h-21.9v7.25h18.71v11.46h-18.71v8.12h22.55Z"/>
  <g>
    <polygon class="cls-1" points="34.18 82.66 34.18 7.82 7.83 7.82 7.83 0 0 0 0 20.54 26.35 20.54 26.35 95.38 51.41 95.38 51.41 82.66 34.18 82.66"/>
    <rect class="cls-1" x="59.24" y="7.82" width="18.39" height="12.72"/>
  </g>
  <g>
    <polygon class="cls-1" points="186.94 82.66 186.94 7.82 160.59 7.82 160.59 0 152.77 0 152.77 20.54 179.12 20.54 179.12 95.38 204.18 95.38 204.18 82.66 186.94 82.66"/>
    <rect class="cls-1" x="212.01" y="7.82" width="18.39" height="12.72"/>
  </g>
</svg>